<svg width="32" height="32" viewBox="0 0 32 32" fill="none" xmlns="http://www.w3.org/2000/svg">
<path d="M0.667993 5.94725C5.05987 9.66669 12.7662 16.2103 15.0312 18.2506C15.3353 18.526 15.6614 18.666 16 18.666C16.3379 18.666 16.6634 18.5273 16.9668 18.2533C19.2337 16.2109 26.9401 9.66669 31.332 5.94725C31.6055 5.71612 31.6472 5.30987 31.4258 5.02731C30.914 4.37437 30.151 4 29.3333 4H2.66668C1.84899 4 1.08593 4.37438 0.574244 5.02738C0.352869 5.30988 0.394556 5.71612 0.667993 5.94725Z" fill="#CD06FF"/>
<path d="M31.6133 7.96279C31.377 7.85279 31.099 7.89116 30.9024 8.05916C26.0319 12.188 19.8158 17.4804 17.86 19.2427C16.7623 20.2336 15.2389 20.2336 14.1386 19.2414C12.054 17.3632 5.0735 11.4289 1.09763 8.0591C0.899688 7.8911 0.621063 7.85404 0.386687 7.96273C0.151062 8.07216 0 8.30785 0 8.5676V25.3332C0 26.804 1.19594 27.9999 2.66669 27.9999H29.3334C30.8041 27.9999 32 26.804 32 25.3332V8.5676C32 8.30785 31.8489 8.07154 31.6133 7.96279Z" fill="#CD06FF"/>
</svg>
