<svg width="11" height="10" viewBox="0 0 11 10" fill="none" xmlns="http://www.w3.org/2000/svg">
<path d="M5.26367 9.74902H0.59082V6.15039C0.59082 4.82552 0.866536 3.77995 1.41797 3.01367C1.9694 2.2474 2.91471 1.57064 4.25391 0.983398L5.26367 2.89551C4.4401 3.28223 3.87077 3.66895 3.55566 4.05566C3.24056 4.43522 3.0651 4.88639 3.0293 5.40918H5.26367V9.74902ZM10.71 9.74902H6.03711V6.15039C6.03711 4.82552 6.31283 3.77995 6.86426 3.01367C7.41569 2.2474 8.361 1.57064 9.7002 0.983398L10.71 2.89551C9.88639 3.28223 9.31706 3.66895 9.00195 4.05566C8.68685 4.43522 8.51139 4.88639 8.47559 5.40918H10.71V9.74902Z" fill="#6C0287"/>
</svg>
